<svg xmlns="http://www.w3.org/2000/svg" width="20" height="20" viewBox="0 0 20 20">
  <defs>
    <style>
      .cls-1 {
        fill: #4267b2;
      }

      .cls-2 {
        fill: #fff;
      }
    </style>
  </defs>
  <g id="facebook_7_" data-name="facebook (7)" transform="translate(0)">
    <path id="Path_112" data-name="Path 112" class="cls-1" d="M18.9,0H1.1A1.1,1.1,0,0,0,0,1.1V18.9A1.1,1.1,0,0,0,1.1,20H18.9A1.1,1.1,0,0,0,20,18.9h0V1.1A1.1,1.1,0,0,0,18.9,0Zm0,0" transform="translate(0 0)"/>
    <path id="Path_113" data-name="Path 113" class="cls-2" d="M212.723,94.3V86.569h2.607l.391-3.027h-3V81.614c0-.874.243-1.47,1.5-1.47h1.589v-2.7a21.363,21.363,0,0,0-2.329-.119,3.636,3.636,0,0,0-3.882,3.99v2.228H207v3.027h2.6V94.3Zm0,0" transform="translate(-198.914 -74.304)"/>
  </g>
</svg>
